<svg version="1.1" viewBox="0.0 0.0 600.0 371.0" fill="none" stroke="none" stroke-linecap="square" stroke-miterlimit="10" width="600" height="371" xmlns:xlink="http://www.w3.org/1999/xlink" xmlns="http://www.w3.org/2000/svg"><path fill="#ffffff" fill-opacity="0.0" d="M0 0L600.0 0L600.0 371.0L0 371.0L0 0Z" fill-rule="nonzero"/><path fill="#b3b3b3" d="M180.10034 140.14487C183.86835 139.46765 187.7431 139.125 191.63333 139.125L191.63333 166.95C187.7431 166.95 183.86835 167.29265 180.10034 167.96986Z" fill-rule="nonzero"/><path fill="#ffffff" d="M145.50136 45.816975C160.57338 43.10809 176.07243 41.7375 191.63333 41.7375L191.63333 139.125C187.7431 139.125 183.86835 139.46765 180.10034 140.14487Z" fill-rule="nonzero"/><path fill="#0f7d55" d="M155.90079 150.89513C162.14336 145.61295 170.61458 141.84975 180.10034 140.14487L180.10034 167.96986C170.61458 169.67474 162.14336 173.43794 155.90079 178.72012Z" fill-rule="nonzero"/><path fill="#16b279" d="M48.703125 88.81799C73.673416 67.68927 107.55833 52.63646 145.50136 45.816975L180.10034 140.14487C170.61458 141.84975 162.14336 145.61295 155.90079 150.89513Z" fill-rule="nonzero"/><path fill="#48b188" d="M377.13333 199.4125C377.13333 271.12668 294.08215 329.2625 191.63333 329.2625C89.18451 329.2625 6.133333 271.12668 6.133333 199.4125L6.133333 171.5875C6.133333 243.30168 89.18451 301.4375 191.63333 301.4375C294.08215 301.4375 377.13333 243.30168 377.13333 171.5875Z" fill-rule="nonzero"/><path fill="#48b188" d="M191.63333 139.125C217.24554 139.125 238.00833 153.65895 238.00833 171.5875L238.00833 199.4125C238.00833 181.48396 217.24554 166.95 191.63333 166.95Z" fill-rule="nonzero"/><path fill="#48b188" d="M145.25833 171.5875C145.25833 164.03336 149.02193 156.7157 155.90079 150.89513L155.90079 178.72012C149.02193 184.5407 145.25833 191.85835 145.25833 199.4125Z" fill-rule="nonzero"/><path fill="#67fdc2" d="M191.63333 41.7375C278.49063 41.7375 353.71857 83.925766 372.6659 143.2616C391.61322 202.59744 349.2062 263.19186 270.6154 289.07928C192.02457 314.9667 98.29502 299.215 45.059578 251.17348C-8.175864 203.13197 -6.66179 135.66528 48.703125 88.81799L155.90079 150.89513C142.05956 162.60695 141.68103 179.47362 154.9899 191.484C168.29875 203.49437 191.73114 207.4323 211.37885 200.96045C231.02655 194.48859 241.62831 179.33998 236.89148 164.50603C232.15465 149.67207 213.34766 139.125 191.63333 139.125Z" fill-rule="nonzero"/><path fill="#000000" d="M238.36763 257.8244Q237.602 257.54315 237.227 257.02753Q236.86763 256.5119 236.86763 255.77753Q236.86763 254.68378 237.64888 253.9494Q238.44576 253.1994 239.74263 253.1994Q241.05513 253.1994 241.852 253.96503Q242.6645 254.73065 242.6645 255.8244Q242.6645 256.5119 242.2895 257.02753Q241.93013 257.54315 241.18013 257.8244Q242.102 258.12128 242.58638 258.79315Q243.07076 259.46503 243.07076 260.40253Q243.07076 261.68378 242.1645 262.55878Q241.25826 263.43378 239.77388 263.43378Q238.2895 263.43378 237.36763 262.55878Q236.46138 261.66815 236.46138 260.35565Q236.46138 259.3869 236.96138 258.73065Q237.46138 258.05878 238.36763 257.8244ZM238.13326 255.74628Q238.13326 256.4494 238.58638 256.90253Q239.0395 257.35565 239.77388 257.35565Q240.49263 257.35565 240.94576 256.91815Q241.39888 256.46503 241.39888 255.80878Q241.39888 255.1369 240.93013 254.68378Q240.46138 254.21503 239.75826 254.21503Q239.05513 254.21503 238.58638 254.66815Q238.13326 255.10565 238.13326 255.74628ZM237.727 260.37128Q237.727 260.90253 237.977 261.40253Q238.227 261.8869 238.71138 262.15253Q239.21138 262.41815 239.7895 262.41815Q240.6645 262.41815 241.227 261.85565Q241.80513 261.29315 241.80513 260.41815Q241.80513 259.52753 241.21138 258.9494Q240.63326 258.35565 239.74263 258.35565Q238.86763 258.35565 238.2895 258.93378Q237.727 259.5119 237.727 260.37128ZM250.86763 255.6994L249.64888 255.79315Q249.477 255.05878 249.18013 254.73065Q248.68013 254.21503 247.94576 254.21503Q247.352 254.21503 246.9145 254.54315Q246.33638 254.96503 245.99263 255.77753Q245.6645 256.59003 245.64888 258.09003Q246.08638 257.41815 246.727 257.09003Q247.38326 256.7619 248.08638 256.7619Q249.32076 256.7619 250.18013 257.66815Q251.0395 258.5744 251.0395 260.0119Q251.0395 260.9494 250.63326 261.7619Q250.227 262.5744 249.50826 263.0119Q248.80513 263.43378 247.89888 263.43378Q246.36763 263.43378 245.39888 262.30878Q244.43013 261.16815 244.43013 258.5744Q244.43013 255.66815 245.49263 254.34003Q246.43013 253.1994 248.02388 253.1994Q249.21138 253.1994 249.96138 253.87128Q250.71138 254.52753 250.86763 255.6994ZM245.83638 260.0119Q245.83638 260.65253 246.102 261.23065Q246.38326 261.80878 246.86763 262.12128Q247.352 262.41815 247.88326 262.41815Q248.6645 262.41815 249.227 261.79315Q249.7895 261.16815 249.7895 260.09003Q249.7895 259.04315 249.227 258.4494Q248.68013 257.84003 247.83638 257.84003Q247.00826 257.84003 246.4145 258.4494Q245.83638 259.04315 245.83638 260.0119ZM252.71138 255.65253Q252.71138 254.5744 253.24263 253.8244Q253.7895 253.0744 254.82076 253.0744Q255.75826 253.0744 256.3676 253.74628Q256.9926 254.41815 256.9926 255.71503Q256.9926 256.99628 256.3676 257.68378Q255.74263 258.37128 254.83638 258.37128Q253.93013 258.37128 253.32076 257.6994Q252.71138 257.0119 252.71138 255.65253ZM254.852 253.91815Q254.39888 253.91815 254.08638 254.3244Q253.7895 254.71503 253.7895 255.7619Q253.7895 256.73065 254.08638 257.12128Q254.39888 257.5119 254.852 257.5119Q255.32076 257.5119 255.61763 257.12128Q255.93013 256.73065 255.93013 255.66815Q255.93013 254.6994 255.61763 254.30878Q255.30513 253.91815 254.852 253.91815ZM254.852 263.6369L260.33636 253.0744L261.33636 253.0744L255.88326 263.6369L254.852 263.6369ZM259.19574 260.90253Q259.19574 259.8244 259.727 259.09003Q260.27386 258.34003 261.3051 258.34003Q262.2426 258.34003 262.8676 259.0119Q263.4926 259.68378 263.4926 260.98065Q263.4926 262.2619 262.8676 262.9494Q262.2426 263.6369 261.3051 263.6369Q260.39886 263.6369 259.7895 262.96503Q259.19574 262.27753 259.19574 260.90253ZM261.33636 259.18378Q260.8676 259.18378 260.57074 259.59003Q260.27386 259.98065 260.27386 261.02753Q260.27386 261.99628 260.57074 262.3869Q260.88324 262.77753 261.33636 262.77753Q261.8051 262.77753 262.102 262.3869Q262.4145 261.99628 262.4145 260.93378Q262.4145 259.96503 262.102 259.5744Q261.8051 259.18378 261.33636 259.18378Z" fill-rule="nonzero"/><path fill="#ffffff" d="M110.03512 96.26868L108.80074 96.26868L108.80074 88.42493Q108.36324 88.8468 107.62887 89.2843Q106.91012 89.70618 106.34762 89.9093L106.34762 88.7218Q107.37887 88.23743 108.14449 87.54993Q108.92574 86.86243 109.23824 86.20618L110.03512 86.20618L110.03512 96.26868ZM113.39449 91.33118Q113.39449 89.54993 113.75387 88.4718Q114.12887 87.37805 114.84762 86.79993Q115.56637 86.20618 116.66012 86.20618Q117.47262 86.20618 118.08199 86.5343Q118.69137 86.86243 119.08199 87.4718Q119.48824 88.08118 119.70699 88.95618Q119.92574 89.83118 119.92574 91.33118Q119.92574 93.0968 119.56637 94.17493Q119.20699 95.25305 118.48824 95.8468Q117.76949 96.44055 116.66012 96.44055Q115.22262 96.44055 114.39449 95.39368Q113.39449 94.14368 113.39449 91.33118ZM114.66012 91.33118Q114.66012 93.79993 115.23824 94.61243Q115.81637 95.42493 116.66012 95.42493Q117.51949 95.42493 118.09762 94.61243Q118.67574 93.7843 118.67574 91.33118Q118.67574 88.8468 118.09762 88.0343Q117.51949 87.2218 116.64449 87.2218Q115.80074 87.2218 115.30074 87.94055Q114.66012 88.86243 114.66012 91.33118ZM121.62887 88.6593Q121.62887 87.58118 122.16012 86.83118Q122.70699 86.08118 123.73824 86.08118Q124.67574 86.08118 125.28512 86.75305Q125.91012 87.42493 125.91012 88.7218Q125.91012 90.00305 125.28512 90.69055Q124.66012 91.37805 123.75387 91.37805Q122.84762 91.37805 122.23824 90.70618Q121.62887 90.01868 121.62887 88.6593ZM123.76949 86.92493Q123.31637 86.92493 123.00387 87.33118Q122.70699 87.7218 122.70699 88.76868Q122.70699 89.73743 123.00387 90.12805Q123.31637 90.51868 123.76949 90.51868Q124.23824 90.51868 124.53512 90.12805Q124.84762 89.73743 124.84762 88.67493Q124.84762 87.70618 124.53512 87.31555Q124.22262 86.92493 123.76949 86.92493ZM123.76949 96.64368L129.25388 86.08118L130.25388 86.08118L124.80074 96.64368L123.76949 96.64368ZM128.11325 93.9093Q128.11325 92.83118 128.6445 92.0968Q129.19138 91.3468 130.22263 91.3468Q131.16013 91.3468 131.78513 92.01868Q132.41013 92.69055 132.41013 93.98743Q132.41013 95.26868 131.78513 95.95618Q131.16013 96.64368 130.22263 96.64368Q129.31638 96.64368 128.707 95.9718Q128.11325 95.2843 128.11325 93.9093ZM130.25388 92.19055Q129.78513 92.19055 129.48825 92.5968Q129.19138 92.98743 129.19138 94.0343Q129.19138 95.00305 129.48825 95.39368Q129.80075 95.7843 130.25388 95.7843Q130.72263 95.7843 131.0195 95.39368Q131.332 95.00305 131.332 93.94055Q131.332 92.9718 131.0195 92.58118Q130.72263 92.19055 130.25388 92.19055Z" fill-rule="nonzero"/><path fill="#000000" d="M168.26843 77.42365L168.26843 75.0174L163.90906 75.0174L163.90906 73.8924L168.48718 67.40803L169.48718 67.40803L169.48718 73.8924L170.84656 73.8924L170.84656 75.0174L169.48718 75.0174L169.48718 77.42365L168.26843 77.42365ZM168.26843 73.8924L168.26843 69.37678L165.1278 73.8924L168.26843 73.8924ZM172.54968 69.81428Q172.54968 68.73615 173.08093 67.98615Q173.6278 67.23615 174.65906 67.23615Q175.59656 67.23615 176.20593 67.90803Q176.83093 68.5799 176.83093 69.87678Q176.83093 71.15803 176.20593 71.84553Q175.58093 72.53303 174.67468 72.53303Q173.76843 72.53303 173.15906 71.86115Q172.54968 71.17365 172.54968 69.81428ZM174.6903 68.0799Q174.23718 68.0799 173.92468 68.48615Q173.6278 68.87678 173.6278 69.92365Q173.6278 70.8924 173.92468 71.28303Q174.23718 71.67365 174.6903 71.67365Q175.15906 71.67365 175.45593 71.28303Q175.76843 70.8924 175.76843 69.8299Q175.76843 68.86115 175.45593 68.47053Q175.14343 68.0799 174.6903 68.0799ZM174.6903 77.79865L180.17468 67.23615L181.17468 67.23615L175.72156 77.79865L174.6903 77.79865ZM179.03406 75.06428Q179.03406 73.98615 179.5653 73.25178Q180.11218 72.50178 181.14343 72.50178Q182.08093 72.50178 182.70593 73.17365Q183.33093 73.84553 183.33093 75.1424Q183.33093 76.42365 182.70593 77.11115Q182.08093 77.79865 181.14343 77.79865Q180.23718 77.79865 179.6278 77.12678Q179.03406 76.43928 179.03406 75.06428ZM181.17468 73.34553Q180.70593 73.34553 180.40906 73.75178Q180.11218 74.1424 180.11218 75.18928Q180.11218 76.15803 180.40906 76.54865Q180.72156 76.93928 181.17468 76.93928Q181.64343 76.93928 181.9403 76.54865Q182.2528 76.15803 182.2528 75.09553Q182.2528 74.12678 181.9403 73.73615Q181.64343 73.34553 181.17468 73.34553Z" fill-rule="nonzero"/><path fill="#67fdc2" d="M420.0 12.0C420.0 15.313708 417.31372 18.0 414.0 18.0C410.68628 18.0 408.0 15.313708 408.0 12.0C408.0 8.686292 410.68628 6.0 414.0 6.0C417.31372 6.0 420.0 8.686292 420.0 12.0Z" fill-rule="nonzero"/><path fill="#ffffff" d="M429.53125 19.0L429.53125 4.796875L432.42188 4.796875L432.42188 16.59375L439.60938 16.59375L439.60938 19.0L429.53125 19.0ZM441.4375 7.21875L441.4375 4.6875L444.1875 4.6875L444.1875 7.21875L441.4375 7.21875ZM441.4375 19.0L441.4375 8.625L444.1875 8.625L444.1875 19.0L441.4375 19.0ZM453.21875 22.953125L453.21875 17.734375Q452.67188 18.421875 451.875 18.828125Q451.07812 19.234375 450.14062 19.234375Q448.375 19.234375 447.23438 17.90625Q445.89062 16.359375 445.89062 13.703125Q445.89062 11.203125 447.15625 9.796875Q448.42188 8.390625 450.29688 8.390625Q451.32812 8.390625 452.07812 8.828125Q452.84375 9.265625 453.42188 10.15625L453.42188 8.625L455.95312 8.625L455.95312 22.953125L453.21875 22.953125ZM453.29688 13.6875Q453.29688 12.09375 452.64062 11.328125Q452.0 10.546875 451.03125 10.546875Q450.03125 10.546875 449.35938 11.34375Q448.6875 12.125 448.6875 13.84375Q448.6875 15.546875 449.32812 16.3125Q449.98438 17.0625 450.92188 17.0625Q451.875 17.0625 452.57812 16.21875Q453.29688 15.359375 453.29688 13.6875ZM465.26562 19.0L465.26562 17.453125Q464.70312 18.28125 463.76562 18.765625Q462.84375 19.234375 461.82812 19.234375Q460.78125 19.234375 459.95312 18.78125Q459.125 18.3125 458.75 17.484375Q458.375 16.65625 458.375 15.1875L458.375 8.625L461.125 8.625L461.125 13.390625Q461.125 15.578125 461.26562 16.078125Q461.42188 16.5625 461.8125 16.859375Q462.21875 17.140625 462.84375 17.140625Q463.54688 17.140625 464.09375 16.765625Q464.65625 16.375 464.85938 15.8125Q465.0625 15.234375 465.0625 13.0L465.0625 8.625L467.8125 8.625L467.8125 19.0L465.26562 19.0ZM470.4375 7.21875L470.4375 4.6875L473.1875 4.6875L473.1875 7.21875L470.4375 7.21875ZM470.4375 19.0L470.4375 8.625L473.1875 8.625L473.1875 19.0L470.4375 19.0ZM484.95312 19.0L482.40625 19.0L482.40625 17.46875Q481.76562 18.359375 480.89062 18.796875Q480.03125 19.234375 479.15625 19.234375Q477.375 19.234375 476.09375 17.796875Q474.82812 16.359375 474.82812 13.78125Q474.82812 11.140625 476.0625 9.765625Q477.29688 8.390625 479.20312 8.390625Q480.9375 8.390625 482.20312 9.84375L482.20312 4.6875L484.95312 4.6875L484.95312 19.0ZM477.625 13.59375Q477.625 15.25 478.07812 15.984375Q478.75 17.0625 479.9375 17.0625Q480.89062 17.0625 481.54688 16.265625Q482.21875 15.453125 482.21875 13.859375Q482.21875 12.0625 481.5625 11.28125Q480.92188 10.5 479.92188 10.5Q478.9375 10.5 478.28125 11.28125Q477.625 12.046875 477.625 13.59375ZM487.4375 7.21875L487.4375 4.6875L490.1875 4.6875L490.1875 7.21875L487.4375 7.21875ZM487.4375 19.0L487.4375 8.625L490.1875 8.625L490.1875 19.0L487.4375 19.0ZM497.1875 8.625L497.1875 10.8125L495.3125 10.8125L495.3125 15.0Q495.3125 16.265625 495.35938 16.484375Q495.42188 16.6875 495.60938 16.828125Q495.8125 16.953125 496.07812 16.953125Q496.45312 16.953125 497.1875 16.6875L497.42188 18.828125Q496.45312 19.234375 495.25 19.234375Q494.5 19.234375 493.90625 18.984375Q493.3125 18.734375 493.03125 18.34375Q492.76562 17.9375 492.65625 17.265625Q492.5625 16.796875 492.5625 15.34375L492.5625 10.8125L491.29688 10.8125L491.29688 8.625L492.5625 8.625L492.5625 6.5625L495.3125 4.96875L495.3125 8.625L497.1875 8.625ZM498.14062 8.625L501.0625 8.625L503.53125 15.984375L505.95312 8.625L508.79688 8.625L505.14062 18.609375L504.48438 20.421875Q504.125 21.328125 503.79688 21.796875Q503.46875 22.28125 503.04688 22.578125Q502.625 22.875 502.0 23.03125Q501.375 23.203125 500.59375 23.203125Q499.8125 23.203125 499.04688 23.046875L498.79688 20.890625Q499.45312 21.015625 499.96875 21.015625Q500.92188 21.015625 501.375 20.453125Q501.84375 19.90625 502.07812 19.03125L498.14062 8.625ZM516.4531 19.0L516.4531 4.6875L521.09375 4.6875Q523.7344 4.6875 524.53125 4.890625Q525.7656 5.21875 526.59375 6.296875Q527.4219 7.375 527.4219 9.09375Q527.4219 10.40625 526.9375 11.3125Q526.46875 12.203125 525.71875 12.71875Q524.9844 13.234375 524.2344 13.390625Q523.1875 13.59375 521.2344 13.59375L519.34375 13.59375L519.34375 19.0L516.4531 19.0ZM519.34375 7.109375L519.34375 11.171875L520.9219 11.171875Q522.6406 11.171875 523.21875 10.953125Q523.7969 10.71875 524.1094 10.25Q524.4375 9.765625 524.4375 9.125Q524.4375 8.34375 523.9844 7.84375Q523.53125 7.328125 522.8281 7.203125Q522.3125 7.109375 520.75 7.109375L519.34375 7.109375ZM528.7969 13.671875Q528.7969 12.296875 529.46875 11.015625Q530.15625 9.734375 531.3906 9.0625Q532.625 8.390625 534.1406 8.390625Q536.5 8.390625 538.0 9.921875Q539.5 11.453125 539.5 13.78125Q539.5 16.140625 537.9844 17.6875Q536.46875 19.234375 534.15625 19.234375Q532.7344 19.234375 531.4375 18.59375Q530.15625 17.9375 529.46875 16.703125Q528.7969 15.453125 528.7969 13.671875ZM531.6094 13.8125Q531.6094 15.359375 532.34375 16.1875Q533.0781 17.0 534.15625 17.0Q535.2344 17.0 535.9531 16.1875Q536.6875 15.359375 536.6875 13.796875Q536.6875 12.265625 535.9531 11.453125Q535.2344 10.625 534.15625 10.625Q533.0781 10.625 532.34375 11.453125Q531.6094 12.265625 531.6094 13.8125ZM540.7969 13.671875Q540.7969 12.296875 541.46875 11.015625Q542.15625 9.734375 543.3906 9.0625Q544.625 8.390625 546.1406 8.390625Q548.5 8.390625 550.0 9.921875Q551.5 11.453125 551.5 13.78125Q551.5 16.140625 549.9844 17.6875Q548.46875 19.234375 546.15625 19.234375Q544.7344 19.234375 543.4375 18.59375Q542.15625 17.9375 541.46875 16.703125Q540.7969 15.453125 540.7969 13.671875ZM543.6094 13.8125Q543.6094 15.359375 544.34375 16.1875Q545.0781 17.0 546.15625 17.0Q547.2344 17.0 547.9531 16.1875Q548.6875 15.359375 548.6875 13.796875Q548.6875 12.265625 547.9531 11.453125Q547.2344 10.625 546.15625 10.625Q545.0781 10.625 544.34375 11.453125Q543.6094 12.265625 543.6094 13.8125ZM553.4375 19.0L553.4375 4.6875L556.1875 4.6875L556.1875 19.0L553.4375 19.0Z" fill-rule="nonzero"/><path fill="#16b279" d="M420.0 46.0C420.0 49.31371 417.31372 52.0 414.0 52.0C410.68628 52.0 408.0 49.31371 408.0 46.0C408.0 42.68629 410.68628 40.0 414.0 40.0C417.31372 40.0 420.0 42.68629 420.0 46.0Z" fill-rule="nonzero"/><path fill="#ffffff" d="M429.45312 53.0L429.45312 38.6875L434.09375 38.6875Q436.73438 38.6875 437.53125 38.890625Q438.76562 39.21875 439.59375 40.296875Q440.42188 41.375 440.42188 43.09375Q440.42188 44.40625 439.9375 45.3125Q439.46875 46.203125 438.71875 46.71875Q437.98438 47.234375 437.23438 47.390625Q436.1875 47.59375 434.23438 47.59375L432.34375 47.59375L432.34375 53.0L429.45312 53.0ZM432.34375 41.109375L432.34375 45.171875L433.92188 45.171875Q435.64062 45.171875 436.21875 44.953125Q436.79688 44.71875 437.10938 44.25Q437.4375 43.765625 437.4375 43.125Q437.4375 42.34375 436.98438 41.84375Q436.53125 41.328125 435.82812 41.203125Q435.3125 41.109375 433.75 41.109375L432.34375 41.109375ZM445.0625 53.0L442.3125 53.0L442.3125 42.625L444.875 42.625L444.875 44.109375Q445.51562 43.0625 446.03125 42.734375Q446.5625 42.390625 447.23438 42.390625Q448.17188 42.390625 449.03125 42.90625L448.1875 45.296875Q447.5 44.859375 446.90625 44.859375Q446.32812 44.859375 445.92188 45.171875Q445.51562 45.484375 445.28125 46.328125Q445.0625 47.15625 445.0625 49.796875L445.0625 53.0ZM456.4375 49.703125L459.17188 50.15625Q458.65625 51.65625 457.51562 52.453125Q456.375 53.234375 454.67188 53.234375Q451.95312 53.234375 450.65625 51.46875Q449.64062 50.046875 449.64062 47.890625Q449.64062 45.3125 450.98438 43.859375Q452.32812 42.390625 454.39062 42.390625Q456.70312 42.390625 458.03125 43.921875Q459.375 45.453125 459.32812 48.609375L452.45312 48.609375Q452.48438 49.828125 453.10938 50.515625Q453.75 51.1875 454.6875 51.1875Q455.34375 51.1875 455.78125 50.84375Q456.21875 50.484375 456.4375 49.703125ZM456.59375 46.921875Q456.5625 45.734375 455.96875 45.125Q455.39062 44.5 454.5625 44.5Q453.65625 44.5 453.07812 45.140625Q452.48438 45.796875 452.5 46.921875L456.59375 46.921875ZM461.125 49.1875L461.125 46.4375L466.51562 46.4375L466.51562 49.1875L461.125 49.1875ZM466.71875 48.34375L469.53125 48.0625Q469.79688 49.484375 470.5625 50.15625Q471.34375 50.8125 472.65625 50.8125Q474.0625 50.8125 474.76562 50.21875Q475.46875 49.625 475.46875 48.84375Q475.46875 48.328125 475.17188 47.984375Q474.875 47.625 474.14062 47.359375Q473.625 47.171875 471.82812 46.734375Q469.5 46.15625 468.5625 45.3125Q467.23438 44.125 467.23438 42.4375Q467.23438 41.34375 467.85938 40.390625Q468.48438 39.4375 469.64062 38.9375Q470.8125 38.4375 472.46875 38.4375Q475.15625 38.4375 476.51562 39.625Q477.89062 40.796875 477.95312 42.78125L475.0625 42.90625Q474.875 41.796875 474.26562 41.3125Q473.65625 40.828125 472.4375 40.828125Q471.17188 40.828125 470.46875 41.34375Q470.0 41.6875 470.0 42.234375Q470.0 42.75 470.4375 43.109375Q470.98438 43.5625 473.09375 44.0625Q475.20312 44.5625 476.20312 45.09375Q477.21875 45.625 477.78125 46.546875Q478.35938 47.46875 478.35938 48.828125Q478.35938 50.0625 477.67188 51.140625Q477.0 52.203125 475.75 52.734375Q474.5 53.25 472.625 53.25Q469.92188 53.25 468.45312 52.0Q467.0 50.75 466.71875 48.34375ZM482.48438 45.796875L480.0 45.34375Q480.42188 43.84375 481.4375 43.125Q482.46875 42.390625 484.48438 42.390625Q486.32812 42.390625 487.21875 42.828125Q488.125 43.265625 488.48438 43.9375Q488.85938 44.59375 488.85938 46.390625L488.82812 49.59375Q488.82812 50.953125 488.95312 51.609375Q489.09375 52.25 489.45312 53.0L486.73438 53.0Q486.625 52.71875 486.46875 52.1875Q486.40625 51.9375 486.375 51.859375Q485.67188 52.546875 484.85938 52.890625Q484.0625 53.234375 483.15625 53.234375Q481.5625 53.234375 480.64062 52.375Q479.71875 51.5 479.71875 50.171875Q479.71875 49.28125 480.125 48.59375Q480.54688 47.90625 481.29688 47.546875Q482.0625 47.171875 483.5 46.90625Q485.42188 46.546875 486.15625 46.234375L486.15625 45.953125Q486.15625 45.171875 485.76562 44.84375Q485.375 44.5 484.29688 44.5Q483.5625 44.5 483.14062 44.78125Q482.73438 45.0625 482.48438 45.796875ZM486.15625 48.015625Q485.625 48.1875 484.48438 48.4375Q483.34375 48.6875 483.0 48.921875Q482.45312 49.296875 482.45312 49.890625Q482.45312 50.453125 482.875 50.875Q483.3125 51.296875 483.98438 51.296875Q484.71875 51.296875 485.39062 50.8125Q485.89062 50.4375 486.04688 49.90625Q486.15625 49.546875 486.15625 48.5625L486.15625 48.015625ZM491.4375 53.0L491.4375 38.6875L494.1875 38.6875L494.1875 53.0L491.4375 53.0ZM502.4375 49.703125L505.17188 50.15625Q504.65625 51.65625 503.51562 52.453125Q502.375 53.234375 500.67188 53.234375Q497.95312 53.234375 496.65625 51.46875Q495.64062 50.046875 495.64062 47.890625Q495.64062 45.3125 496.98438 43.859375Q498.32812 42.390625 500.39062 42.390625Q502.70312 42.390625 504.03125 43.921875Q505.375 45.453125 505.32812 48.609375L498.45312 48.609375Q498.48438 49.828125 499.10938 50.515625Q499.75 51.1875 500.6875 51.1875Q501.34375 51.1875 501.78125 50.84375Q502.21875 50.484375 502.4375 49.703125ZM502.59375 46.921875Q502.5625 45.734375 501.96875 45.125Q501.39062 44.5 500.5625 44.5Q499.65625 44.5 499.07812 45.140625Q498.48438 45.796875 498.5 46.921875L502.59375 46.921875Z" fill-rule="nonzero"/><path fill="#ffffff" d="M420.0 80.0C420.0 83.313705 417.31372 86.0 414.0 86.0C410.68628 86.0 408.0 83.313705 408.0 80.0C408.0 76.686295 410.68628 74.0 414.0 74.0C417.31372 74.0 420.0 76.686295 420.0 80.0Z" fill-rule="nonzero"/><path fill="#ffffff" d="M432.67188 87.0L432.67188 75.109375L428.4375 75.109375L428.4375 72.6875L439.8125 72.6875L439.8125 75.109375L435.5625 75.109375L435.5625 87.0L432.67188 87.0ZM448.4375 83.703125L451.17188 84.15625Q450.65625 85.65625 449.51562 86.453125Q448.375 87.234375 446.67188 87.234375Q443.95312 87.234375 442.65625 85.46875Q441.64062 84.046875 441.64062 81.890625Q441.64062 79.3125 442.98438 77.859375Q444.32812 76.390625 446.39062 76.390625Q448.70312 76.390625 450.03125 77.921875Q451.375 79.453125 451.32812 82.609375L444.45312 82.609375Q444.48438 83.828125 445.10938 84.515625Q445.75 85.1875 446.6875 85.1875Q447.34375 85.1875 447.78125 84.84375Q448.21875 84.484375 448.4375 83.703125ZM448.59375 80.921875Q448.5625 79.734375 447.96875 79.125Q447.39062 78.5 446.5625 78.5Q445.65625 78.5 445.07812 79.140625Q444.48438 79.796875 444.5 80.921875L448.59375 80.921875ZM455.48438 79.796875L453.0 79.34375Q453.42188 77.84375 454.4375 77.125Q455.46875 76.390625 457.48438 76.390625Q459.32812 76.390625 460.21875 76.828125Q461.125 77.265625 461.48438 77.9375Q461.85938 78.59375 461.85938 80.390625L461.82812 83.59375Q461.82812 84.953125 461.95312 85.609375Q462.09375 86.25 462.45312 87.0L459.73438 87.0Q459.625 86.71875 459.46875 86.1875Q459.40625 85.9375 459.375 85.859375Q458.67188 86.546875 457.85938 86.890625Q457.0625 87.234375 456.15625 87.234375Q454.5625 87.234375 453.64062 86.375Q452.71875 85.5 452.71875 84.171875Q452.71875 83.28125 453.125 82.59375Q453.54688 81.90625 454.29688 81.546875Q455.0625 81.171875 456.5 80.90625Q458.42188 80.546875 459.15625 80.234375L459.15625 79.953125Q459.15625 79.171875 458.76562 78.84375Q458.375 78.5 457.29688 78.5Q456.5625 78.5 456.14062 78.78125Q455.73438 79.0625 455.48438 79.796875ZM459.15625 82.015625Q458.625 82.1875 457.48438 82.4375Q456.34375 82.6875 456.0 82.921875Q455.45312 83.296875 455.45312 83.890625Q455.45312 84.453125 455.875 84.875Q456.3125 85.296875 456.98438 85.296875Q457.71875 85.296875 458.39062 84.8125Q458.89062 84.4375 459.04688 83.90625Q459.15625 83.546875 459.15625 82.5625L459.15625 82.015625ZM464.23438 76.625L466.76562 76.625L466.76562 78.046875Q468.125 76.390625 470.0 76.390625Q470.98438 76.390625 471.71875 76.8125Q472.45312 77.21875 472.92188 78.046875Q473.60938 77.21875 474.39062 76.8125Q475.1875 76.390625 476.09375 76.390625Q477.23438 76.390625 478.01562 76.859375Q478.8125 77.328125 479.20312 78.21875Q479.48438 78.890625 479.48438 80.375L479.48438 87.0L476.73438 87.0L476.73438 81.078125Q476.73438 79.53125 476.45312 79.078125Q476.07812 78.5 475.28125 78.5Q474.70312 78.5 474.1875 78.859375Q473.6875 79.203125 473.46875 79.875Q473.25 80.546875 473.25 82.015625L473.25 87.0L470.5 87.0L470.5 81.3125Q470.5 79.796875 470.34375 79.359375Q470.20312 78.921875 469.89062 78.71875Q469.59375 78.5 469.0625 78.5Q468.4375 78.5 467.92188 78.84375Q467.42188 79.171875 467.1875 79.828125Q466.96875 80.46875 466.96875 81.953125L466.96875 87.0L464.23438 87.0L464.23438 76.625ZM500.125 85.25L498.46875 87.375Q497.23438 86.78125 496.125 85.734375Q495.25 86.515625 494.26562 86.890625Q493.29688 87.25 491.95312 87.25Q489.26562 87.25 487.92188 85.75Q486.875 84.59375 486.875 83.078125Q486.875 81.703125 487.6875 80.609375Q488.51562 79.5 490.15625 78.6875Q489.42188 77.8125 489.04688 77.03125Q488.67188 76.25 488.67188 75.546875Q488.67188 74.25 489.70312 73.34375Q490.75 72.4375 492.6875 72.4375Q494.53125 72.4375 495.57812 73.390625Q496.625 74.328125 496.625 75.703125Q496.625 76.5625 496.10938 77.34375Q495.59375 78.125 494.01562 79.125L496.01562 81.75Q496.35938 81.125 496.60938 80.109375L499.09375 80.6875Q498.71875 82.0 498.4375 82.609375Q498.17188 83.21875 497.85938 83.625Q498.32812 84.0625 499.04688 84.578125Q499.78125 85.078125 500.125 85.25ZM492.65625 77.46875L493.39062 76.90625Q494.21875 76.265625 494.21875 75.640625Q494.21875 75.109375 493.8125 74.75Q493.42188 74.375 492.75 74.375Q492.09375 74.375 491.71875 74.703125Q491.35938 75.03125 491.35938 75.453125Q491.35938 75.96875 491.98438 76.6875L492.65625 77.46875ZM491.57812 80.453125Q490.625 80.921875 490.15625 81.59375Q489.6875 82.265625 489.6875 82.96875Q489.6875 83.859375 490.26562 84.421875Q490.85938 84.984375 491.82812 84.984375Q492.46875 84.984375 493.0625 84.734375Q493.67188 84.484375 494.375 83.890625L491.57812 80.453125ZM507.42188 87.0L507.42188 72.6875L511.75 72.6875L514.34375 82.453125L516.90625 72.6875L521.25 72.6875L521.25 87.0L518.5625 87.0L518.5625 75.734375L515.71875 87.0L512.9375 87.0L510.10938 75.734375L510.10938 87.0L507.42188 87.0ZM526.4844 79.796875L524.0 79.34375Q524.4219 77.84375 525.4375 77.125Q526.46875 76.390625 528.4844 76.390625Q530.3281 76.390625 531.21875 76.828125Q532.125 77.265625 532.4844 77.9375Q532.8594 78.59375 532.8594 80.390625L532.8281 83.59375Q532.8281 84.953125 532.9531 85.609375Q533.09375 86.25 533.4531 87.0L530.7344 87.0Q530.625 86.71875 530.46875 86.1875Q530.40625 85.9375 530.375 85.859375Q529.6719 86.546875 528.8594 86.890625Q528.0625 87.234375 527.15625 87.234375Q525.5625 87.234375 524.6406 86.375Q523.71875 85.5 523.71875 84.171875Q523.71875 83.28125 524.125 82.59375Q524.5469 81.90625 525.2969 81.546875Q526.0625 81.171875 527.5 80.90625Q529.4219 80.546875 530.15625 80.234375L530.15625 79.953125Q530.15625 79.171875 529.7656 78.84375Q529.375 78.5 528.2969 78.5Q527.5625 78.5 527.1406 78.78125Q526.7344 79.0625 526.4844 79.796875ZM530.15625 82.015625Q529.625 82.1875 528.4844 82.4375Q527.34375 82.6875 527.0 82.921875Q526.4531 83.296875 526.4531 83.890625Q526.4531 84.453125 526.875 84.875Q527.3125 85.296875 527.9844 85.296875Q528.71875 85.296875 529.3906 84.8125Q529.8906 84.4375 530.0469 83.90625Q530.15625 83.546875 530.15625 82.5625L530.15625 82.015625ZM538.0625 87.0L535.3125 87.0L535.3125 76.625L537.875 76.625L537.875 78.109375Q538.5156 77.0625 539.03125 76.734375Q539.5625 76.390625 540.2344 76.390625Q541.1719 76.390625 542.03125 76.90625L541.1875 79.296875Q540.5 78.859375 539.90625 78.859375Q539.3281 78.859375 538.9219 79.171875Q538.5156 79.484375 538.28125 80.328125Q538.0625 81.15625 538.0625 83.796875L538.0625 87.0ZM543.34375 87.0L543.34375 72.6875L546.0781 72.6875L546.0781 80.28125L549.2969 76.625L552.6719 76.625L549.125 80.421875L552.9219 87.0L549.96875 87.0L547.3594 82.34375L546.0781 83.671875L546.0781 87.0L543.34375 87.0ZM560.4375 83.703125L563.1719 84.15625Q562.65625 85.65625 561.5156 86.453125Q560.375 87.234375 558.6719 87.234375Q555.9531 87.234375 554.65625 85.46875Q553.6406 84.046875 553.6406 81.890625Q553.6406 79.3125 554.9844 77.859375Q556.3281 76.390625 558.3906 76.390625Q560.7031 76.390625 562.03125 77.921875Q563.375 79.453125 563.3281 82.609375L556.4531 82.609375Q556.4844 83.828125 557.1094 84.515625Q557.75 85.1875 558.6875 85.1875Q559.34375 85.1875 559.78125 84.84375Q560.21875 84.484375 560.4375 83.703125ZM560.59375 80.921875Q560.5625 79.734375 559.96875 79.125Q559.3906 78.5 558.5625 78.5Q557.65625 78.5 557.0781 79.140625Q556.4844 79.796875 556.5 80.921875L560.59375 80.921875ZM570.1875 76.625L570.1875 78.8125L568.3125 78.8125L568.3125 83.0Q568.3125 84.265625 568.3594 84.484375Q568.4219 84.6875 568.6094 84.828125Q568.8125 84.953125 569.0781 84.953125Q569.4531 84.953125 570.1875 84.6875L570.4219 86.828125Q569.4531 87.234375 568.25 87.234375Q567.5 87.234375 566.90625 86.984375Q566.3125 86.734375 566.03125 86.34375Q565.7656 85.9375 565.65625 85.265625Q565.5625 84.796875 565.5625 83.34375L565.5625 78.8125L564.2969 78.8125L564.2969 76.625L565.5625 76.625L565.5625 74.5625L568.3125 72.96875L568.3125 76.625L570.1875 76.625ZM572.4375 75.21875L572.4375 72.6875L575.1875 72.6875L575.1875 75.21875L572.4375 75.21875ZM572.4375 87.0L572.4375 76.625L575.1875 76.625L575.1875 87.0L572.4375 87.0ZM586.875 87.0L584.125 87.0L584.125 81.703125Q584.125 80.03125 583.9531 79.546875Q583.78125 79.046875 583.375 78.78125Q582.9844 78.5 582.4219 78.5Q581.71875 78.5 581.1406 78.890625Q580.5781 79.28125 580.3594 79.921875Q580.15625 80.5625 580.15625 82.296875L580.15625 87.0L577.4219 87.0L577.4219 76.625L579.96875 76.625L579.96875 78.15625Q581.3281 76.390625 583.3906 76.390625Q584.2969 76.390625 585.0469 76.71875Q585.7969 77.046875 586.1719 77.5625Q586.5625 78.0625 586.71875 78.71875Q586.875 79.359375 586.875 80.546875L586.875 87.0ZM589.1875 87.6875L592.3125 88.0625Q592.3906 88.609375 592.6719 88.8125Q593.0625 89.109375 593.90625 89.109375Q594.9844 89.109375 595.5156 88.78125Q595.875 88.578125 596.0625 88.09375Q596.1875 87.75 596.1875 86.828125L596.1875 85.3125Q594.96875 87.0 593.09375 87.0Q591.0 87.0 589.78125 85.234375Q588.8281 83.828125 588.8281 81.75Q588.8281 79.140625 590.0781 77.765625Q591.3281 76.390625 593.2031 76.390625Q595.125 76.390625 596.375 78.078125L596.375 76.625L598.9375 76.625L598.9375 85.9375Q598.9375 87.765625 598.625 88.671875Q598.3281 89.59375 597.78125 90.109375Q597.2344 90.625 596.3125 90.90625Q595.40625 91.203125 594.0156 91.203125Q591.375 91.203125 590.2656 90.296875Q589.1719 89.40625 589.1719 88.015625Q589.1719 87.875 589.1875 87.6875ZM591.6406 81.59375Q591.6406 83.25 592.2656 84.015625Q592.90625 84.78125 593.84375 84.78125Q594.8594 84.78125 595.5469 84.0Q596.25 83.203125 596.25 81.671875Q596.25 80.0625 595.5781 79.28125Q594.9219 78.5 593.90625 78.5Q592.90625 78.5 592.2656 79.265625Q591.6406 80.03125 591.6406 81.59375Z" fill-rule="nonzero"/></svg>